<?xml version="1.0" encoding="UTF-8"?> <svg xmlns="http://www.w3.org/2000/svg" xmlns:xlink="http://www.w3.org/1999/xlink" id="Layer_2" data-name="Layer 2" viewBox="0 0 158.24 159.51"> <defs> <style> .cls-1 { fill: url(#New_Gradient_Swatch_3); } .cls-1, .cls-2, .cls-3, .cls-4, .cls-5, .cls-6, .cls-7, .cls-8, .cls-9, .cls-10 { stroke-width: 0px; } .cls-1, .cls-2, .cls-4, .cls-5, .cls-6, .cls-7, .cls-8, .cls-9, .cls-10 { fill-rule: evenodd; } .cls-2 { fill: url(#New_Gradient_Swatch_3-3); } .cls-3 { opacity: .3; } .cls-4 { fill: url(#New_Gradient_Swatch_3-4); } .cls-5 { fill: url(#New_Gradient_Swatch_1-2); } .cls-6 { fill: url(#New_Gradient_Swatch_1); } .cls-7 { fill: url(#New_Gradient_Swatch_11); } .cls-8 { fill: url(#New_Gradient_Swatch_12); } .cls-9 { fill: url(#New_Gradient_Swatch_3-2); } .cls-10 { fill: url(#New_Gradient_Swatch_11-2); } </style> <radialGradient id="New_Gradient_Swatch_11" data-name="New Gradient Swatch 11" cx="160.03" cy="22.57" fx="160.03" fy="22.57" r="46" gradientUnits="userSpaceOnUse"> <stop offset="0" stop-color="#fff"></stop> <stop offset=".5" stop-color="#2652a3"></stop> <stop offset="1" stop-color="#62338f"></stop> </radialGradient> <radialGradient id="New_Gradient_Swatch_1" data-name="New Gradient Swatch 1" cx="13.03" cy="167.24" fx="13.03" fy="167.24" r="39.11" gradientUnits="userSpaceOnUse"> <stop offset="0" stop-color="#fff"></stop> <stop offset=".5" stop-color="#31b1e7"></stop> <stop offset="1" stop-color="#323390"></stop> </radialGradient> <linearGradient id="New_Gradient_Swatch_12" data-name="New Gradient Swatch 12" x1="5.7" y1="79.75" x2="128.06" y2="79.75" gradientUnits="userSpaceOnUse"> <stop offset=".1" stop-color="#1db1e8"></stop> <stop offset=".4" stop-color="#2c3d96"></stop> <stop offset=".6" stop-color="#4b2e8d"></stop> <stop offset=".9" stop-color="#34479b"></stop> </linearGradient> <linearGradient id="New_Gradient_Swatch_3" data-name="New Gradient Swatch 3" x1="-28.39" y1="17.24" x2="34.27" y2="47.24" gradientUnits="userSpaceOnUse"> <stop offset="0" stop-color="#fff"></stop> <stop offset="1" stop-color="#fff" stop-opacity="0"></stop> </linearGradient> <linearGradient id="New_Gradient_Swatch_3-2" data-name="New Gradient Swatch 3" x1="48.32" y1="201.57" x2="48.32" y2="106.07" xlink:href="#New_Gradient_Swatch_3"></linearGradient> <linearGradient id="New_Gradient_Swatch_3-3" data-name="New Gradient Swatch 3" x1="133.76" y1="145.06" x2="98.43" y2="115.06" xlink:href="#New_Gradient_Swatch_3"></linearGradient> <linearGradient id="New_Gradient_Swatch_3-4" data-name="New Gradient Swatch 3" x1="101.65" y1="-55.93" x2="101.65" y2="49.09" xlink:href="#New_Gradient_Swatch_3"></linearGradient> <radialGradient id="New_Gradient_Swatch_11-2" data-name="New Gradient Swatch 11" cx="102.09" cy="65.65" fx="102.09" fy="65.65" r="44.59" xlink:href="#New_Gradient_Swatch_11"></radialGradient> <radialGradient id="New_Gradient_Swatch_1-2" data-name="New Gradient Swatch 1" cx="47.94" cy="107.72" fx="47.94" fy="107.72" r="39.93" xlink:href="#New_Gradient_Swatch_1"></radialGradient> </defs> <g id="Layer_1-2" data-name="Layer 1"> <g> <path class="cls-7" d="M113.69,32.68c2.92,1.71,5.9,3.38,8.93,5.01,9.13-4.28,16.28-5.98,21.26-5.58.6-9.28-10.87-10.49-30.19.58Z"></path> <path class="cls-6" d="M40.15,135.18c-10.66,6.08-18.99,8.32-24.73,7.6,2.62,7.71,13.77,8.35,30.32-1.9-1.93-1.85-3.8-3.76-5.6-5.71Z"></path> <path class="cls-8" d="M152.37,39.7c-3.24,0-5.87,2.63-5.87,5.87,0,2.08,1.08,3.9,2.71,4.95-12.53,24.73-50.93,49.42-74.2,62.06-.82,4.44-4.72,7.81-9.4,7.81-5.28,0-9.56-4.28-9.56-9.56s4.28-9.56,9.56-9.56c1.94,0,3.75.58,5.25,1.57,32.31-17.57,53.78-35.28,65.68-49.6.34-2.72.63-5.46.86-8.23C112.69,33.69,89.96,18.85,70.31,0,51.55,18,29.28,33.08,3.23,45c1.41,16.99,4.94,33.15,10.8,48.06,7.93-7.16,16.6-13.4,25.99-18.76-13.45,11.7-29.54,29.33-34.35,47.45-3.15.1-5.67,2.69-5.67,5.86s2.63,5.87,5.87,5.87,5.87-2.63,5.87-5.87c0-2.41-1.45-4.48-3.53-5.38,8.32-24.05,38.1-47.82,57.27-60.36.35-4.96,4.49-8.87,9.54-8.87s9.56,4.28,9.56,9.56-4.28,9.56-9.56,9.56c-1.69,0-3.27-.44-4.65-1.2-21.88,14.39-37.27,29.06-46.81,41.84,11.46,19.54,27.32,35.19,46.75,46.75,28.48-16.96,47.31-41.4,57.74-70.31-5.98,3.5-12.09,6.91-18.32,10.24,16.62-12.93,32.67-28.96,41.98-48.04,3.47.39,6.53-2.32,6.53-5.83,0-3.24-2.63-5.87-5.87-5.87ZM8.64,127.62c0,1.53-1.24,2.77-2.77,2.77s-2.77-1.24-2.77-2.77,1.24-2.77,2.77-2.77,2.77,1.24,2.77,2.77ZM152.37,48.34c-1.53,0-2.77-1.24-2.77-2.77s1.24-2.77,2.77-2.77,2.77,1.24,2.77,2.77-1.24,2.77-2.77,2.77ZM79.53,62.56c0,2.49-2.02,4.52-4.52,4.52s-4.52-2.02-4.52-4.52,2.02-4.52,4.52-4.52,4.52,2.02,4.52,4.52ZM70.13,110.82c0,2.49-2.02,4.52-4.52,4.52s-4.52-2.02-4.52-4.52,2.02-4.52,4.52-4.52,4.52,2.02,4.52,4.52Z"></path> <path class="cls-1" d="M17.37,90.14c7.01-5.95,14.56-11.22,22.65-15.83-6.73,5.86-14.12,13.2-20.43,21.34.61,1.43,1.25,2.84,1.9,4.24,12.78-15.59,30.86-29.43,43.98-38.01.23-3.28,2.12-6.1,4.83-7.64V5.73C51.72,22.95,30.56,36.76,7.64,47.55c1.47,14.99,4.66,29.29,9.72,42.59Z"></path> <path class="cls-9" d="M26.33,109.21c10.27,18.03,24.77,33.52,43.98,45.43v-35.49c-1.39.79-2.99,1.24-4.7,1.24-5.28,0-9.56-4.28-9.56-9.56s4.28-9.56,9.56-9.56c1.71,0,3.32.45,4.7,1.24v-31.54c-19.85,13.06-34.35,26.35-43.98,38.25Z"></path> <path class="cls-2" d="M70.31,119.15v35.49c24.91-15.44,41.91-36.91,52.02-62.13-4.14,2.35-8.34,4.67-12.61,6.94,5.02-3.9,9.98-8.08,14.72-12.55,1.21-3.41,2.29-6.88,3.26-10.41-16.57,14.88-37.76,27.97-52.7,36.09-.52,2.82-2.28,5.21-4.7,6.58Z"></path> <path class="cls-4" d="M70.31,54.23c1.39-.79,3-1.24,4.71-1.24,5.28,0,9.56,4.28,9.56,9.56s-4.28,9.56-9.56,9.56c-1.69,0-3.27-.44-4.65-1.2l.49,31.91c28.2-15.33,48.13-30.77,60.66-43.97.6-3.72,1.09-7.5,1.46-11.32-22.92-10.79-44.08-24.6-62.67-41.82v48.51Z"></path> <path class="cls-3" d="M74.64,74.39c-1.26,0-2.46-.24-3.56-.69-22.25,15.16-37.14,29.55-45.98,41.59,5.72,9.28,12.59,17.85,20.65,25.59-8.86-23.98-1.19-45.72,25.48-64.85,1.01.36,2.1.56,3.24.56,5.28,0,9.64-4.54,9.64-9.82-1.02,4.28-4.94,7.62-9.47,7.62Z"></path> <path class="cls-3" d="M69.93,98.12c-1.15-.49-2.4-.75-3.73-.75-5.14,0-9.48,4.29-9.72,9.39,1.02-4.29,4.94-7.64,9.47-7.64,1.65,0,3.2.42,4.55,1.15,35.73-21.07,56.92-40.01,66.74-53.65.05-.54.1-1.07.14-1.61-8.28-3.79-16.18-7.9-23.71-12.32,6.03,22.05-11.36,43.83-43.76,65.44Z"></path> <path class="cls-10" d="M111.61,31.45c.69.41,1.38.82,2.08,1.23,26.95-15.44,38.62-6.99,23.56,13.93-9.82,13.64-31.01,32.58-66.74,53.65-1.35-.73-2.9-1.15-4.55-1.15-5.28,0-9.73,4.54-9.73,9.82.88-4.38,4.74-7.67,9.37-7.67,1.94,0,3.75.58,5.25,1.57,32.31-17.57,53.78-35.28,65.68-49.6,22.16-26.67,11.1-41.56-24.92-21.78Z"></path> <path class="cls-5" d="M75.02,72.12c-1.69,0-3.27-.44-4.65-1.2-21.88,14.39-37.27,29.06-46.81,41.84-22.9,30.67-12.1,50.44,23.43,29.31-.42-.39-.83-.78-1.25-1.18-28.9,17.89-41.34,2.59-20.65-25.59,8.84-12.04,23.74-26.44,45.98-41.59,1.1.44,2.3.69,3.56.69,5.28,0,9.73-4.54,9.73-9.82-.93,4.31-4.76,7.55-9.35,7.55Z"></path> </g> </g> </svg> 