<?xml version="1.0" encoding="UTF-8"?> <svg xmlns="http://www.w3.org/2000/svg" id="Layer_2" data-name="Layer 2" viewBox="0 0 987.8 75.72"> <defs> <style> .cls-1 { stroke-width: 0px; } .cls-1, .cls-2 { fill: #fff; } .cls-2 { stroke: #fff; stroke-width: 3px; } </style> </defs> <g id="protect_energy_sphere_set_02" data-name="protect energy sphere set_02"> <g> <path class="cls-1" d="M58.9,1.5c15.89,0,22.33,7.38,22.33,21.4v7.69c0,14.02-6.44,21.4-22.33,21.4H15.89v19.95c0,1.56-.73,2.29-2.29,2.29H2.39c-1.56,0-2.39-.73-2.39-2.29V4.62C0,2.54,1.04,1.5,3.12,1.5h55.78ZM15.89,38.27h39.79c7.06,0,9.66-3.01,9.66-9.25v-3.95c0-6.23-2.6-9.25-9.66-9.25H17.24c-.94,0-1.35.31-1.35,1.25v21.19Z"></path> <path class="cls-1" d="M150.43,1.5c15.89,0,22.33,7.38,22.33,21.4v5.92c0,11.84-4.57,18.8-15.48,20.78l17.76,22.02c.62.73.52,2.6-1.35,2.6h-13.4c-1.77,0-2.29-.42-2.91-1.35l-16.41-21.61h-33.55v20.67c0,1.56-.73,2.29-2.29,2.29h-11.22c-1.56,0-2.39-.73-2.39-2.29V4.62c0-2.08,1.04-3.12,3.12-3.12h55.78ZM107.42,38.59h39.79c7.06,0,9.66-3.01,9.66-9.25v-4.36c0-6.23-2.6-9.25-9.66-9.25h-38.44c-.94,0-1.35.42-1.35,1.25v21.61Z"></path> <path class="cls-1" d="M244.03,1.5c21.09,0,29.09,7.48,29.09,27.42v17.87c0,19.95-8,27.42-29.09,27.42h-32.1c-20.98,0-29.09-7.48-29.09-27.42v-17.87c0-19.95,8.1-27.42,29.09-27.42h32.1ZM198.74,45.65c0,10.91,3.12,14.13,13.82,14.13h30.85c10.7,0,13.82-3.22,13.82-14.13v-15.58c0-10.91-3.12-14.13-13.82-14.13h-30.85c-10.7,0-13.82,3.22-13.82,14.13v15.58Z"></path> <path class="cls-1" d="M362.98,1.5c1.56,0,2.39.73,2.39,2.29v10.18c0,1.56-.83,2.39-2.39,2.39h-32.62v55.58c0,1.56-.73,2.29-2.29,2.29h-11.32c-1.56,0-2.29-.73-2.29-2.29V16.35h-32.62c-1.56,0-2.39-.83-2.39-2.39V3.79c0-1.56.83-2.29,2.39-2.29h81.13Z"></path> <path class="cls-1" d="M446.5,1.5c1.56,0,2.39.73,2.39,2.29v9.87c0,1.56-.83,2.29-2.39,2.29h-45.4c-10.8,0-13.82,3.22-13.82,14.13v1.04h58.69c1.56,0,2.29.73,2.29,2.29v8.21c0,1.56-.73,2.29-2.29,2.29h-58.69v1.77c0,10.91,3.01,14.13,13.82,14.13h45.4c1.56,0,2.39.73,2.39,2.29v9.87c0,1.56-.83,2.29-2.39,2.29h-45.71c-20.98,0-29.09-7.48-29.09-27.42v-17.87c0-19.95,8.1-27.42,29.09-27.42h45.71Z"></path> <path class="cls-1" d="M535.95,1.5c1.56,0,2.29.73,2.29,2.29v10.18c0,1.56-.73,2.39-2.29,2.39h-46.23c-10.7,0-13.82,3.12-13.82,14.13v14.75c0,11.01,3.12,14.23,13.82,14.23h46.23c1.56,0,2.29.73,2.29,2.29v10.18c0,1.56-.73,2.29-2.29,2.29h-46.85c-20.98,0-29.09-7.48-29.09-27.42v-17.87c0-19.95,8.1-27.42,29.09-27.42h46.85Z"></path> <path class="cls-1" d="M628.41,1.5c1.56,0,2.39.73,2.39,2.29v10.18c0,1.56-.83,2.39-2.39,2.39h-32.62v55.58c0,1.56-.73,2.29-2.29,2.29h-11.32c-1.56,0-2.29-.73-2.29-2.29V16.35h-32.62c-1.56,0-2.39-.83-2.39-2.39V3.79c0-1.56.83-2.29,2.39-2.29h81.13Z"></path> <path class="cls-1" d="M698.32,1.5c21.09,0,29.09,7.48,29.09,27.42v17.87c0,19.95-8,27.42-29.09,27.42h-32.1c-20.98,0-29.09-7.48-29.09-27.42v-17.87c0-19.95,8.1-27.42,29.09-27.42h32.1ZM653.03,45.65c0,10.91,3.12,14.13,13.82,14.13h30.85c10.7,0,13.82-3.22,13.82-14.13v-15.58c0-10.91-3.12-14.13-13.82-14.13h-30.85c-10.7,0-13.82,3.22-13.82,14.13v15.58Z"></path> <path class="cls-1" d="M799.2,1.5c15.89,0,22.33,7.38,22.33,21.4v5.92c0,11.84-4.57,18.8-15.48,20.78l17.76,22.02c.62.73.52,2.6-1.35,2.6h-13.4c-1.77,0-2.29-.42-2.91-1.35l-16.41-21.61h-33.55v20.67c0,1.56-.73,2.29-2.29,2.29h-11.22c-1.56,0-2.39-.73-2.39-2.29V4.62c0-2.08,1.04-3.12,3.12-3.12h55.78ZM756.19,38.59h39.79c7.06,0,9.66-3.01,9.66-9.25v-4.36c0-6.23-2.6-9.25-9.66-9.25h-38.44c-.94,0-1.35.42-1.35,1.25v21.61Z"></path> <path class="cls-2" d="M915.24,1.5c5.3,0,8.52,1.66,11.95,7.9l34.38,62.43c.73,1.35.42,2.39-1.25,2.39h-13.19c-1.35,0-1.87-.31-2.39-1.35l-7.38-13.4h-48.82l-7.17,13.4c-.52,1.04-1.14,1.35-2.39,1.35h-13.5c-1.77,0-2.08-1.04-1.35-2.39l34.07-62.43c3.43-6.23,6.54-7.9,10.91-7.9h6.13ZM895.09,47.42h35.74l-16.52-30.44c-.31-.52-.62-.73-1.14-.73h-.62c-.52,0-.83.21-1.14.73l-16.31,30.44Z"></path> <path class="cls-2" d="M984.01,1.5c1.56,0,2.29.73,2.29,2.29v68.15c0,1.56-.73,2.29-2.29,2.29h-11.22c-1.56,0-2.39-.73-2.39-2.29V3.79c0-1.56.83-2.29,2.39-2.29h11.22Z"></path> </g> </g> </svg> 